<svg data-name="social icon_off" xmlns="http://www.w3.org/2000/svg" width="18" height="18" viewBox="0 0 18 18">
    <defs>
        <clipPath id="oq0l6ncyoa">
            <path data-name="사각형 18549" style="fill:none" d="M0 0h18v18H0z"/>
        </clipPath>
    </defs>
    <g data-name="그룹 6854" style="clip-path:url(#oq0l6ncyoa)">
        <path data-name="빼기 11" d="M-2875.063-919.125a3.942 3.942 0 0 1-3.937-3.937 3.942 3.942 0 0 1 3.938-3.937 3.942 3.942 0 0 1 3.938 3.938 3.942 3.942 0 0 1-3.939 3.936zm-.656-5.249a.657.657 0 0 0-.657.655.657.657 0 0 0 .657.656.657.657 0 0 0 .656-.656.656.656 0 0 0-.656-.655zm2.626 0a.657.657 0 0 0-.092.006.652.652 0 0 0-.433.255.653.653 0 0 0-.125.487.659.659 0 0 0 .648.563.656.656 0 0 0 .094-.006.657.657 0 0 0 .558-.741.659.659 0 0 0-.65-.565z" transform="translate(2879 927)" style="fill:#8e8e8e;stroke:transparent;stroke-miterlimit:10"/>
        <path data-name="빼기 12" d="M-2875.063-919.125a3.942 3.942 0 0 1-3.937-3.937 3.942 3.942 0 0 1 3.938-3.937 3.942 3.942 0 0 1 3.938 3.938 3.942 3.942 0 0 1-3.939 3.936zm.657-5.249a.657.657 0 0 0-.657.655.657.657 0 0 0 .657.656.657.657 0 0 0 .656-.656.657.657 0 0 0-.656-.655zm-2.625 0a.657.657 0 0 0-.657.655.657.657 0 0 0 .657.656.656.656 0 0 0 .655-.656.656.656 0 0 0-.655-.655z" transform="translate(2889.125 927)" style="fill:#8e8e8e;stroke:transparent;stroke-miterlimit:10"/>
        <path data-name="빼기 10" d="M-2875.063-919.125a3.942 3.942 0 0 1-3.937-3.937 3.942 3.942 0 0 1 3.938-3.937 3.942 3.942 0 0 1 3.938 3.938 3.942 3.942 0 0 1-3.939 3.936zm1.969-5.249a.657.657 0 0 0-.657.655.657.657 0 0 0 .657.656.656.656 0 0 0 .655-.656.656.656 0 0 0-.655-.655zm-2.625 0a.657.657 0 0 0-.657.655.657.657 0 0 0 .657.656.657.657 0 0 0 .656-.656.656.656 0 0 0-.656-.655z" transform="translate(2879 937.125)" style="fill:#8e8e8e;stroke:transparent;stroke-miterlimit:10"/>
        <path data-name="빼기 13" d="M-2875.063-919.125a3.942 3.942 0 0 1-3.937-3.937 3.942 3.942 0 0 1 3.938-3.937 3.942 3.942 0 0 1 3.938 3.938 3.942 3.942 0 0 1-3.939 3.936zm-2.1-4.463a.525.525 0 0 0-.524.526.525.525 0 0 0 .524.525h1.577v1.575a.524.524 0 0 0 .524.524.525.525 0 0 0 .526-.524v-1.575h1.575a.526.526 0 0 0 .526-.525.526.526 0 0 0-.526-.526h-1.575v-1.575a.526.526 0 0 0-.526-.525.525.525 0 0 0-.524.525v1.575z" transform="translate(2889.125 937.125)" style="fill:#8e8e8e;stroke:transparent;stroke-miterlimit:10"/>
    </g>
</svg>
