<svg data-name="social icon_on" xmlns="http://www.w3.org/2000/svg" width="18" height="18" viewBox="0 0 18 18">
    <defs>
        <clipPath id="fa4e4fnf6a">
            <path data-name="사각형 18549" style="fill:none" d="M0 0h18v18H0z"/>
        </clipPath>
    </defs>
    <g data-name="그룹 6854" style="clip-path:url(#fa4e4fnf6a)">
        <path data-name="빼기 16" d="M-2875.063-1781.125a3.942 3.942 0 0 1-3.937-3.937 3.942 3.942 0 0 1 3.938-3.937 3.942 3.942 0 0 1 3.938 3.938 3.942 3.942 0 0 1-3.939 3.936zm1.97-5.25a.667.667 0 0 0-.092.006.653.653 0 0 0-.433.255.65.65 0 0 0-.125.486.658.658 0 0 0 .649.564.633.633 0 0 0 .092-.006.651.651 0 0 0 .433-.255.653.653 0 0 0 .125-.487.659.659 0 0 0-.648-.563zm-2.626 0a.657.657 0 0 0-.657.656.657.657 0 0 0 .657.655.656.656 0 0 0 .656-.655.657.657 0 0 0-.656-.655z" transform="translate(2879 1789)" style="fill:#15e853;stroke:transparent;stroke-miterlimit:10"/>
        <path data-name="빼기 15" d="M-2875.063-1781.125a3.942 3.942 0 0 1-3.937-3.937 3.942 3.942 0 0 1 3.938-3.937 3.942 3.942 0 0 1 3.938 3.938 3.942 3.942 0 0 1-3.939 3.936zm.657-5.249a.657.657 0 0 0-.657.656.657.657 0 0 0 .657.655.656.656 0 0 0 .656-.655.657.657 0 0 0-.656-.656zm-2.625 0a.657.657 0 0 0-.657.656.657.657 0 0 0 .657.655.656.656 0 0 0 .655-.655.656.656 0 0 0-.655-.656z" transform="translate(2889.125 1789)" style="fill:#15e853;stroke:transparent;stroke-miterlimit:10"/>
        <path data-name="빼기 17" d="M-2875.063-1781.125a3.942 3.942 0 0 1-3.937-3.937 3.942 3.942 0 0 1 3.938-3.937 3.942 3.942 0 0 1 3.938 3.938 3.942 3.942 0 0 1-3.939 3.936zm1.969-5.249a.657.657 0 0 0-.657.656.657.657 0 0 0 .657.655.656.656 0 0 0 .655-.655.656.656 0 0 0-.655-.656zm-2.625 0a.657.657 0 0 0-.657.656.657.657 0 0 0 .657.655.656.656 0 0 0 .656-.655.657.657 0 0 0-.656-.656z" transform="translate(2879 1799.125)" style="fill:#15e853;stroke:transparent;stroke-miterlimit:10"/>
        <path data-name="빼기 14" d="M-2875.063-1781.125a3.942 3.942 0 0 1-3.937-3.937 3.942 3.942 0 0 1 3.938-3.937 3.942 3.942 0 0 1 3.938 3.938 3.942 3.942 0 0 1-3.939 3.936zm-2.1-4.462a.525.525 0 0 0-.524.525.525.525 0 0 0 .524.525h1.577v1.575a.524.524 0 0 0 .524.524.525.525 0 0 0 .526-.524v-1.575h1.575a.526.526 0 0 0 .526-.525.526.526 0 0 0-.526-.525h-1.575v-1.575a.526.526 0 0 0-.526-.526.525.525 0 0 0-.524.526v1.575z" transform="translate(2889.125 1799.125)" style="fill:#15e853;stroke:transparent;stroke-miterlimit:10"/>
    </g>
</svg>
