<svg xmlns="http://www.w3.org/2000/svg" xmlns:xlink="http://www.w3.org/1999/xlink" width="186.887" height="186.441" viewBox="0 0 186.887 186.441">
  <defs>
    <clipPath id="clip-path">
      <rect id="사각형_17331" data-name="사각형 17331" width="68.42" height="67.207"/>
    </clipPath>
  </defs>
  <g id="그룹_5354" data-name="그룹 5354" transform="translate(-94 -290.104)">
    <g id="그룹_5321" data-name="그룹 5321" transform="matrix(0.799, 0.602, -0.602, 0.799, 173.533, 290.104)">
      <path id="빼기_1" data-name="빼기 1" d="M42.784,2.207,83.992.047A33.873,33.873,0,0,1,117.4,21.736l14.766,38.442a33.873,33.873,0,0,1-10.317,38.493L89.794,124.608a33.873,33.873,0,0,1-39.761,2.084L15.445,104.247a33.873,33.873,0,0,1-14.284-37.2L11.828,27.269A33.873,33.873,0,0,1,42.784,2.207ZM78.724,123.23a38.373,38.373,0,0,0,31.544-19.674L124,78.883a38.428,38.428,0,0,0-5.5-44.934L99.423,13.524A38.347,38.347,0,0,0,55.156,4.94L29.419,16.95A38.416,38.416,0,0,0,7.536,56.4l3.37,27.755a38.389,38.389,0,0,0,30.863,33.1l27.714,5.334a38.345,38.345,0,0,0,8.008.686C77.9,123.266,78.315,123.252,78.724,123.23Z" transform="translate(0 0)" fill="#131313"/>
    </g>
    <g id="그룹_5353" data-name="그룹 5353" transform="translate(153 346.614)">
      <g id="그룹_5352" data-name="그룹 5352" transform="translate(0)" clip-path="url(#clip-path)">
        <path id="패스_4244" data-name="패스 4244" d="M0,33.6a36.952,36.952,0,0,1,34.21,33.6A36.952,36.952,0,0,1,68.42,33.6,36.952,36.952,0,0,1,34.21,0,36.952,36.952,0,0,1,0,33.6"/>
      </g>
    </g>
  </g>
</svg>
