<svg data-name="ticket icon_off" xmlns="http://www.w3.org/2000/svg" width="14" height="17" viewBox="0 0 14 17">
    <defs>
        <clipPath id="sbcgci0yja">
            <path data-name="사각형 18555" style="fill:#8e8e8e" d="M0 0h14v17H0z"/>
        </clipPath>
    </defs>
    <g data-name="그룹 6869" style="clip-path:url(#sbcgci0yja)">
        <path data-name="패스 13998" d="M12.444 0H1.556A1.55 1.55 0 0 0 0 1.545v13.91A1.551 1.551 0 0 0 1.556 17h10.888A1.551 1.551 0 0 0 14 15.455V1.545A1.55 1.55 0 0 0 12.444 0M2.333 7.083a.745.745 0 0 1-.778-.708.747.747 0 0 1 .778-.709.747.747 0 0 1 .778.709.745.745 0 0 1-.778.708m3.111 0a.745.745 0 0 1-.778-.708.747.747 0 0 1 .778-.709.747.747 0 0 1 .778.709.745.745 0 0 1-.778.708m3.111 0a.745.745 0 0 1-.778-.708.781.781 0 0 1 1.556 0 .745.745 0 0 1-.778.708m3.111 0a.745.745 0 0 1-.778-.708.781.781 0 0 1 1.556 0 .745.745 0 0 1-.778.708" style="fill:#8e8e8e"/>
    </g>
</svg>
