<svg xmlns="http://www.w3.org/2000/svg" width="14" height="16" viewBox="0 0 14 16">
    <defs>
        <clipPath id="zsod1lkcca">
            <path data-name="사각형 18554" style="fill:none" d="M0 0h14v16H0z"/>
        </clipPath>
    </defs>
    <g data-name="ticket icon_on">
        <g data-name="그룹 6863">
            <g data-name="그룹 6862" style="clip-path:url(#zsod1lkcca)">
                <path data-name="빼기 18" d="M-2974.556-2640h-10.888a1.509 1.509 0 0 1-1.556-1.454v-13.092a1.509 1.509 0 0 1 1.556-1.454h10.888a1.509 1.509 0 0 1 1.556 1.454v13.092a1.509 1.509 0 0 1-1.556 1.454zm-.778-10.667a.78.78 0 0 0-.778.78.78.78 0 0 0 .778.78.78.78 0 0 0 .779-.78.78.78 0 0 0-.778-.78zm-3.111 0a.78.78 0 0 0-.778.78.78.78 0 0 0 .778.78.78.78 0 0 0 .779-.78.78.78 0 0 0-.779-.78zm-3.111 0a.78.78 0 0 0-.778.78.78.78 0 0 0 .778.78.78.78 0 0 0 .779-.78.78.78 0 0 0-.779-.78zm-3.11 0a.78.78 0 0 0-.778.78.78.78 0 0 0 .778.78.78.78 0 0 0 .778-.78.78.78 0 0 0-.779-.78z" transform="translate(2987 2656)" style="fill:#15e853;stroke:transparent;stroke-miterlimit:10"/>
            </g>
        </g>
    </g>
</svg>
